<svg width="1643" height="319" viewBox="0 0 1643 319" fill="none" xmlns="http://www.w3.org/2000/svg">
<path d="M1382.73 128.21C1378.76 145.31 1372.01 156.663 1369.14 160.203C1396.39 174.693 1400.2 186.24 1405.24 200.006C1410.29 213.773 1405.76 224.437 1397.38 240.731C1389 257.025 1366.95 270.17 1361.72 272.79C1356.49 275.41 1332.8 279.869 1315.13 281.561C1297.46 283.252 1275.2 273.545 1265.17 268.074C1255.15 262.603 1236.97 239.863 1234.4 230.537C1231.82 221.211 1235.46 205.809 1235.66 202.502C1235.85 199.195 1245.17 183.542 1251.53 178.256C1256.62 174.028 1261.28 170.697 1262.98 169.561C1260.18 166.273 1253.68 158.394 1250.08 153.184C1245.59 146.672 1240.35 136.213 1237.58 130.194C1234.81 124.174 1229.62 109.618 1227.78 91.1603C1225.94 72.7023 1227.8 60.9051 1231.06 52.1171C1234.31 43.3291 1240.03 38.9819 1247.92 37.4954C1255.82 36.0088 1266.88 47.0069 1275.77 55.1441C1284.66 63.2812 1294.95 87.5074 1298.31 96.6851C1301.67 105.863 1303.96 126.689 1304.7 130.637C1305.3 133.796 1305 146.661 1304.77 152.699L1323.72 149.132C1322.37 143.391 1319.52 130.301 1318.96 123.865C1318.27 115.82 1317.62 103.679 1319.63 92.6713C1321.65 81.6634 1323.66 70.6555 1330.76 56.2382C1337.85 41.8209 1341.7 36.1913 1351.86 29.3726C1362.02 22.5538 1368.1 28.7682 1371.7 30.5423C1375.31 32.3165 1382.13 42.4787 1387.27 61.1315C1392.42 79.7843 1387.7 106.835 1382.73 128.21Z" fill="#B2A9A1" stroke="#B3A9A1"/>
<path d="M1308.97 227.125L1335.51 247.971" stroke="#49494B" stroke-width="3" stroke-linecap="round"/>
<path d="M1311.68 250.192L1334.73 225.546" stroke="#49494B" stroke-width="3" stroke-linecap="round"/>
<path d="M590.808 157.674C583.738 173.743 575.007 183.652 571.525 186.599C595.629 205.881 597.236 217.934 599.646 232.396C602.056 246.858 595.629 256.5 584.38 270.962C573.132 285.424 549.028 294.262 543.404 295.869C537.78 297.476 513.676 297.476 496 295.869C478.324 294.262 458.237 280.603 449.399 273.372C440.561 266.141 426.903 240.43 426.099 230.789C425.296 221.147 431.723 206.685 432.527 203.471C433.33 200.258 445.382 186.599 452.613 182.581C458.399 179.368 463.594 176.957 465.469 176.154C463.326 172.404 458.398 163.459 455.827 157.674C452.612 150.443 449.399 139.195 447.792 132.767C446.185 126.339 443.775 111.074 445.382 92.5938C446.989 74.1141 451.006 62.866 455.827 54.8312C460.647 46.7965 467.075 43.583 475.11 43.583C483.144 43.583 491.982 56.4384 499.213 66.0799C506.445 75.7214 512.069 101.432 513.676 111.074C515.283 120.715 513.676 141.605 513.676 145.622C513.676 148.836 510.997 161.424 509.658 167.316H528.942C528.674 161.424 528.299 148.033 528.942 141.605C529.745 133.57 531.352 121.519 535.369 111.074C539.387 100.629 543.404 90.1836 553.045 77.3283C562.687 64.4729 567.508 59.652 578.756 54.8312C590.005 50.0105 594.825 57.2416 598.039 59.652C601.253 62.0624 606.074 73.3108 607.681 92.5938C609.288 111.877 599.646 137.588 590.808 157.674Z" fill="white" stroke="white"/>
<path d="M500.017 241.234L522.239 266.63" stroke="#49494B" stroke-width="3" stroke-linecap="round"/>
<path d="M498.411 264.404L525.623 244.448" stroke="#49494B" stroke-width="3" stroke-linecap="round"/>
<path d="M789.489 162.108C783.29 178.534 775.104 188.897 771.785 192.025C796.888 209.988 799.139 221.936 802.322 236.249C805.505 250.561 799.603 260.533 789.147 275.578C778.69 290.623 755.095 300.741 749.566 302.647C744.036 304.553 719.966 305.846 702.23 305.19C684.493 304.533 663.703 291.972 654.489 285.225C645.276 278.478 630.258 253.537 628.939 243.953C627.619 234.368 633.262 219.582 633.892 216.33C634.522 213.077 645.823 198.792 652.829 194.392C658.434 190.873 663.492 188.187 665.321 187.284C662.981 183.655 657.58 174.987 654.702 169.348C651.104 162.3 647.292 151.241 645.343 144.908C643.393 138.576 640.168 123.462 640.781 104.922C641.394 86.3829 644.803 74.9356 649.185 66.6538C653.568 58.372 659.814 54.8184 667.837 54.3874C675.86 53.9565 685.375 66.3193 693.113 75.559C700.851 84.7988 707.846 110.171 709.968 119.712C712.09 129.254 711.606 150.2 711.821 154.211C711.993 157.42 709.994 170.133 708.973 176.089L728.229 175.055C727.645 169.185 726.553 155.834 726.85 149.381C727.221 141.315 728.179 129.194 731.63 118.549C735.082 107.903 738.533 97.2578 747.471 83.9038C756.409 70.5498 760.964 65.4772 771.938 60.06C782.912 54.6429 788.113 61.605 791.452 63.8395C794.79 66.074 800.207 77.0477 802.846 96.2168C805.485 115.386 797.237 141.577 789.489 162.108Z" fill="#B2A9A1" stroke="#B3A9A1"/>
<path d="M703.311 250.418L726.862 274.585" stroke="#49494B" stroke-width="3" stroke-linecap="round"/>
<path d="M702.948 273.64L729.051 252.254" stroke="#49494B" stroke-width="3" stroke-linecap="round"/>
<path d="M1185.21 146.834C1180.32 163.696 1172.98 174.672 1169.91 178.052C1196.35 193.983 1199.54 205.718 1203.84 219.735C1208.13 233.752 1203.04 244.158 1193.8 259.979C1184.56 275.8 1161.83 287.743 1156.47 290.079C1151.1 292.414 1127.21 295.597 1109.48 296.338C1091.74 297.079 1070.03 286.192 1060.31 280.192C1050.6 274.191 1033.67 250.509 1031.6 241.058C1029.53 231.607 1033.99 216.422 1034.36 213.13C1034.73 209.839 1044.87 194.708 1051.51 189.771C1056.82 185.822 1061.65 182.746 1063.41 181.702C1060.79 178.269 1054.72 170.052 1051.41 164.658C1047.27 157.914 1042.6 147.189 1040.16 141.03C1037.71 134.87 1033.31 120.057 1032.46 101.526C1031.61 82.9963 1034.11 71.3163 1037.83 62.7153C1041.55 54.1143 1047.49 50.0803 1055.46 49.0194C1063.42 47.9585 1073.88 59.5343 1082.32 68.1365C1090.76 76.7388 1099.73 101.482 1102.6 110.827C1105.46 120.172 1106.63 141.091 1107.16 145.073C1107.58 148.259 1106.59 161.09 1106.04 167.107L1125.16 164.561C1124.11 158.755 1121.97 145.531 1121.76 139.075C1121.5 131.005 1121.5 118.846 1124.1 107.962C1126.7 97.0782 1129.31 86.1942 1137.17 72.1784C1145.03 58.1625 1149.17 52.7472 1159.68 46.4834C1170.2 40.2196 1175.93 46.7508 1179.43 48.7158C1182.94 50.6807 1189.2 61.1941 1193.34 80.096C1197.48 98.998 1191.32 125.757 1185.21 146.834Z" fill="white" stroke="white"/>
<path d="M1106.25 241.651L1131.63 263.89" stroke="#49494B" stroke-width="3" stroke-linecap="round"/>
<path d="M1107.71 264.83L1132.05 241.456" stroke="#49494B" stroke-width="3" stroke-linecap="round"/>
<path d="M1642.47 1C1337.96 50.5466 583.347 119.912 1 1" stroke="#373737" stroke-width="2"/>
<path d="M985.293 158.847C980.406 175.709 973.06 186.685 969.998 190.064C996.437 205.996 999.621 217.73 1003.92 231.748C1008.22 245.765 1003.12 256.171 993.881 271.992C984.64 287.813 961.914 299.756 956.552 302.091C951.189 304.427 927.296 307.61 909.563 308.351C891.829 309.092 870.115 298.205 860.4 292.204C850.684 286.203 833.75 262.521 831.681 253.07C829.612 243.619 833.368 228.276 834.445 225.143C835.613 221.745 844.959 206.721 851.597 201.784C856.908 197.834 861.739 194.759 863.491 193.715C860.872 190.281 854.806 182.065 851.494 176.67C847.353 169.927 842.682 159.201 840.241 153.042C837.799 146.883 833.394 132.069 832.547 113.539C831.7 95.009 834.196 83.329 837.914 74.728C841.632 66.127 847.579 62.093 855.543 61.0321C863.507 59.9712 873.965 71.547 882.406 80.1492C890.847 88.7515 899.817 113.494 902.683 122.839C905.549 132.184 906.714 153.103 907.245 157.086C907.669 160.271 906.677 173.102 906.127 179.119L925.242 176.573C924.198 170.768 922.058 157.544 921.847 151.088C921.582 143.017 921.584 130.859 924.187 119.975C926.79 109.091 929.393 98.2069 937.252 84.1911C945.112 70.1752 949.254 64.7599 959.767 58.4961C970.281 52.2323 976.014 58.7636 979.518 60.7285C983.022 62.6934 989.286 73.2068 993.425 92.1088C997.564 111.011 991.402 137.769 985.293 158.847Z" fill="#49494B" stroke="#49494B"/>
<path d="M906.331 253.664L931.711 275.903" stroke="#FAF9FB" stroke-width="3" stroke-linecap="round"/>
<path d="M907.798 276.843L932.137 253.468" stroke="#FAF9FB" stroke-width="3" stroke-linecap="round"/>
<path d="M391.481 139.998C384.411 156.067 375.68 165.977 372.198 168.923C396.302 188.206 397.909 200.258 400.319 214.72C402.73 229.182 396.302 238.824 385.053 253.286C373.805 267.748 349.701 276.586 344.077 278.193C338.453 279.8 314.349 279.8 296.673 278.193C278.997 276.586 258.91 262.928 250.072 255.697C241.234 248.465 227.575 222.755 226.772 213.113C225.969 203.472 231.719 188.759 233.2 185.796C234.806 182.582 246.055 168.923 253.286 164.906C259.072 161.692 264.267 159.281 266.142 158.478C263.999 154.728 259.071 145.783 256.5 139.998C253.286 132.767 250.072 121.519 248.465 115.091C246.858 108.664 244.448 93.3978 246.055 74.918C247.662 56.4383 251.679 45.1902 256.5 37.1555C261.321 29.1207 267.748 25.9072 275.783 25.9072C283.817 25.9072 292.655 38.7626 299.887 48.4041C307.118 58.0456 312.742 83.7563 314.349 93.3978C315.956 103.039 314.349 123.929 314.349 127.947C314.349 131.16 311.671 143.748 310.332 149.64H329.615C329.347 143.748 328.972 130.357 329.615 123.929C330.418 115.895 332.025 103.843 336.043 93.3978C340.06 82.9528 344.077 72.5078 353.719 59.6525C363.36 46.7972 368.181 41.9762 379.429 37.1555C390.678 32.3347 395.498 39.5658 398.712 41.9762C401.926 44.3866 406.747 55.635 408.354 74.918C409.961 94.201 400.319 119.912 391.481 139.998Z" fill="#49494B" stroke="#49494B"/>
<path d="M300.69 223.558L322.911 248.954" stroke="#FAF9FB" stroke-width="3" stroke-linecap="round"/>
<path d="M299.083 246.728L326.295 226.772" stroke="#FAF9FB" stroke-width="3" stroke-linecap="round"/>
</svg>
