<svg width="1025" height="1026" viewBox="0 0 1025 1026" fill="none" xmlns="http://www.w3.org/2000/svg">
<path d="M512.5 10.78C580.34 10.78 646.15 24.06 708.09 50.26C767.93 75.57 821.67 111.8 867.82 157.95C913.97 204.1 950.21 257.84 975.51 317.68C1001.71 379.62 1014.99 445.43 1014.99 513.27C1014.99 581.11 1001.71 646.92 975.51 708.86C950.2 768.7 913.97 822.44 867.82 868.59C821.67 914.74 767.93 950.98 708.09 976.28C646.15 1002.48 580.34 1015.76 512.5 1015.76C444.66 1015.76 378.85 1002.48 316.91 976.28C257.07 950.97 203.33 914.74 157.18 868.59C111.03 822.44 74.79 768.7 49.49 708.86C23.29 646.92 10.01 581.11 10.01 513.27C10.01 445.43 23.29 379.62 49.49 317.68C74.8 257.84 111.03 204.1 157.18 157.95C203.33 111.8 257.07 75.56 316.91 50.26C378.85 24.06 444.66 10.78 512.5 10.78ZM512.5 0.780029C229.45 0.780029 0 230.23 0 513.28C0 796.33 229.45 1025.78 512.5 1025.78C795.55 1025.78 1025 796.33 1025 513.28C1025 230.23 795.55 0.780029 512.5 0.780029Z" fill="url(#paint0_linear_49_74)"/>
<path d="M512.5 65.72C572.92 65.72 631.53 77.55 686.71 100.89C740 123.43 787.87 155.7 828.97 196.81C870.08 237.92 902.35 285.78 924.89 339.07C948.23 394.24 960.06 452.85 960.06 513.28C960.06 573.71 948.23 632.31 924.89 687.49C902.35 740.78 870.08 788.65 828.97 829.75C787.86 870.85 740 903.13 686.71 925.67C631.54 949.01 572.93 960.84 512.5 960.84C452.07 960.84 393.47 949.01 338.29 925.67C285 903.13 237.13 870.86 196.03 829.75C154.92 788.64 122.65 740.78 100.11 687.49C76.7699 632.32 64.9399 573.71 64.9399 513.28C64.9399 452.85 76.7699 394.25 100.11 339.07C122.65 285.78 154.92 237.91 196.03 196.81C237.14 155.7 285 123.43 338.29 100.89C393.46 77.55 452.07 65.72 512.5 65.72ZM512.5 57.72C260.9 57.72 56.9399 261.68 56.9399 513.28C56.9399 764.88 260.9 968.84 512.5 968.84C764.1 968.84 968.06 764.88 968.06 513.28C968.06 261.68 764.1 57.72 512.5 57.72Z" fill="url(#paint1_linear_49_74)"/>
<path d="M87.2014 334.246L58.2266 321.623L62.5688 311.656L91.5437 324.279L87.2014 334.246Z" fill="url(#paint2_linear_49_74)"/>
<path d="M121.741 234.585L143.124 235.967L136.163 246.114L124.904 245.059L128.583 257.164L123.005 265.296L96.9427 247.417L103.045 238.521L117.223 248.247L110.387 227.819L116.824 218.436L121.741 234.585Z" fill="url(#paint3_linear_49_74)"/>
<path d="M176.724 152.141C178.779 150.206 180.876 148.877 183.014 148.157C185.153 147.436 187.203 147.338 189.164 147.864C191.136 148.381 192.921 149.487 194.52 151.185C196.119 152.883 197.116 154.731 197.513 156.73C197.921 158.72 197.7 160.76 196.853 162.851C196.005 164.943 194.553 166.956 192.498 168.892L187.006 174.063L192.9 180.321L184.985 187.775L163.317 164.766L176.724 152.141ZM186.169 163.216C186.957 162.475 187.382 161.717 187.445 160.944C187.508 160.151 187.208 159.402 186.544 158.696C185.879 157.991 185.154 157.651 184.368 157.677C183.583 157.683 182.797 158.057 182.009 158.799L177.039 163.479L181.199 167.896L186.169 163.216Z" fill="url(#paint4_linear_49_74)"/>
<path d="M291.009 107.96L281.099 113.967L276.49 110.551L263.913 118.174L264.81 123.839L254.899 129.846L250.374 95.6317L262.771 88.118L291.009 107.96ZM260.832 98.9021L262.445 108.962L269.004 104.987L260.832 98.9021Z" fill="url(#paint5_linear_49_74)"/>
<path d="M417.068 61.5317L411.688 30.3879L446.237 24.4203L451.617 55.5641L440.903 57.4146L437.159 35.7385L424.037 38.0051L427.781 59.6812L417.068 61.5317Z" fill="url(#paint6_linear_49_74)"/>
<path d="M538.001 20.8522C540.821 20.9783 543.235 21.5572 545.242 22.589C547.248 23.6208 548.746 25.0236 549.736 26.7973C550.739 28.5716 551.188 30.6235 551.084 32.9529C550.98 35.2823 550.349 37.2859 549.192 38.9636C548.048 40.6419 546.431 41.9054 544.34 42.7539C542.249 43.6025 539.793 43.9638 536.973 43.8377L529.437 43.5008L529.053 52.0887L518.192 51.6031L519.604 20.0297L538.001 20.8522ZM536.636 35.344C537.716 35.3923 538.556 35.1697 539.154 34.6762C539.767 34.1693 540.096 33.4318 540.139 32.4635C540.182 31.4953 539.921 30.7383 539.355 30.1928C538.803 29.6338 537.987 29.3302 536.907 29.2819L530.087 28.977L529.816 35.0391L536.636 35.344Z" fill="url(#paint7_linear_49_74)"/>
<path d="M628.046 54.087L626.625 57.2877L645.099 62.0964L642.934 70.4157L613.326 62.7092L619.55 48.0001L621.288 32.1233L650.691 39.7768L648.526 48.0962L630.256 43.3406L629.936 46.828L646.35 51.1005L644.461 58.3596L628.046 54.087Z" fill="url(#paint8_linear_49_74)"/>
<path d="M731.595 94.8096L747.768 80.0106L762.67 87.7978L748.033 115.809L738.882 111.027L749.158 91.3635L731.226 107.026L721.702 102.05L724.273 78.4782L714.046 98.0486L704.896 93.267L719.533 65.256L734.435 73.0432L731.595 94.8096Z" fill="url(#paint9_linear_49_74)"/>
<path d="M802.558 154.343L822.695 129.984L831.075 136.911L810.937 161.27L802.558 154.343Z" fill="url(#paint10_linear_49_74)"/>
<path d="M883.307 210.514L899.499 207.66L906.907 216.736L871.071 222.813L863.663 213.737L871.541 212.393L881.727 185.885L889.294 195.157L883.307 210.514Z" fill="url(#paint11_linear_49_74)"/>
<path d="M937.699 307.527L959.507 305.292L966.824 320.43L938.37 334.186L933.876 324.89L953.852 315.234L930.117 317.113L925.44 307.438L941.56 290.05L921.68 299.661L917.186 290.365L945.641 276.61L952.959 291.748L937.699 307.527Z" fill="url(#paint12_linear_49_74)"/>
<path d="M210.16 887.41C208.969 888.925 208.45 890.408 208.603 891.859C208.765 893.298 209.669 894.664 211.315 895.958C214.559 898.507 217.418 898.207 219.893 895.058L231.309 880.53L240.541 887.785L228.732 902.814C226.791 905.283 224.496 907.001 221.846 907.967C219.197 908.933 216.396 909.096 213.446 908.456C210.517 907.813 207.65 906.391 204.847 904.188C202.056 901.995 200.001 899.54 198.681 896.825C197.373 894.119 196.865 891.365 197.155 888.565C197.467 885.761 198.594 883.125 200.534 880.656L212.344 865.627L221.576 872.882L210.16 887.41Z" fill="url(#paint13_linear_49_74)"/>
<path d="M318.183 948.675L320.466 971.704L308.431 966.069L307.577 953.885L295.324 959.932L285.679 955.416L300.153 924.504L310.704 929.444L302.831 946.26L323.399 935.388L334.527 940.599L318.183 948.675Z" fill="url(#paint14_linear_49_74)"/>
<path d="M414.258 999.967L409.055 987.23L405.628 986.501L403.262 997.63L391.777 995.189L398.874 961.802L419.796 966.249C422.437 966.811 424.668 967.773 426.487 969.137C428.309 970.486 429.597 972.125 430.351 974.053C431.104 975.981 431.246 978.05 430.776 980.261C430.274 982.621 429.192 984.539 427.529 986.015C425.88 987.495 423.822 988.422 421.354 988.797L427.39 1002.76L414.258 999.967ZM408.646 972.301L407.321 978.533L414.978 980.16C416.121 980.403 417.053 980.322 417.775 979.917C418.515 979.501 418.99 978.795 419.202 977.801C419.413 976.807 419.264 975.977 418.754 975.31C418.262 974.632 417.445 974.171 416.303 973.928L408.646 972.301Z" fill="url(#paint15_linear_49_74)"/>
<path d="M545.504 1009.07L532.992 1009.33L530.529 1003.64L514.65 1003.97L512.426 1009.75L499.913 1010.01L514.174 975.577L529.826 975.252L545.504 1009.07ZM522.184 984.287L518.255 994.565L526.536 994.393L522.184 984.287Z" fill="url(#paint16_linear_49_74)"/>
<path d="M619.615 998.047L611.908 964.796L623.346 962.144L631.053 995.395L619.615 998.047Z" fill="url(#paint17_linear_49_74)"/>
<path d="M725.15 947.197L716.431 928.491L726.743 923.684L741.163 954.621L727.839 960.831L706.365 947.292L715.382 966.638L705.07 971.444L690.65 940.507L704.386 934.105L725.15 947.197Z" fill="url(#paint18_linear_49_74)"/>
<path d="M809.053 895.472L810.878 898.784L827.079 886.035L832.82 893.331L806.855 913.763L798.269 898.804L785.748 886.94L811.534 866.648L817.275 873.944L801.253 886.553L804.043 889.106L818.438 877.778L823.448 884.144L809.053 895.472Z" fill="url(#paint19_linear_49_74)"/>
<path d="M456.072 832.43L459.849 812.05L442.526 808.839L444.197 799.825L471.632 804.91L466.184 834.304L456.072 832.43Z" fill="url(#paint20_linear_49_74)"/>
<path d="M409.752 803.591C410.344 802.011 410.384 800.635 409.872 799.464C409.355 798.306 408.238 797.405 406.521 796.762C403.136 795.495 400.829 796.504 399.599 799.789L393.924 814.944L384.293 811.337L390.164 795.659C391.129 793.084 392.589 791.041 394.544 789.532C396.5 788.023 398.794 787.144 401.427 786.895C404.042 786.655 406.812 787.082 409.736 788.177C412.648 789.267 415.014 790.771 416.836 792.687C418.646 794.599 419.801 796.763 420.301 799.177C420.784 801.6 420.543 804.099 419.579 806.675L413.708 822.353L404.077 818.746L409.752 803.591Z" fill="url(#paint21_linear_49_74)"/>
<path d="M346.95 775.036L344.235 755.27L355.045 761.812L356.13 772.299L365.958 768.415L376.632 774.875L357.777 781.588L360.507 800.059L349.492 793.393L348.551 784.438L340.284 787.822L329.406 781.238L346.95 775.036Z" fill="url(#paint22_linear_49_74)"/>
<path d="M312.319 744.099L314.889 742.009L301.371 730.037L306.763 723.95L328.426 743.137L316.875 752.873L308.605 765.516L287.091 746.462L292.482 740.375L305.85 752.214L307.615 749.411L295.604 738.774L300.308 733.462L312.319 744.099Z" fill="url(#paint23_linear_49_74)"/>
<path d="M262.079 667.733L257.355 678.819L259.013 681.401L267.398 676.018L272.954 684.672L247.797 700.823L237.676 685.057C236.399 683.067 235.624 681.086 235.352 679.113C235.069 677.147 235.296 675.336 236.032 673.679C236.768 672.022 237.969 670.659 239.635 669.59C241.413 668.448 243.274 667.941 245.218 668.066C247.154 668.181 249 668.891 250.753 670.196L255.727 657.838L262.079 667.733ZM248.313 688.271L253.009 685.256L249.305 679.487C248.752 678.626 248.127 678.095 247.43 677.895C246.715 677.691 245.983 677.83 245.234 678.311C244.485 678.792 244.06 679.396 243.959 680.124C243.839 680.848 244.056 681.641 244.609 682.502L248.313 688.271Z" fill="url(#paint24_linear_49_74)"/>
<path d="M240.152 622.631C241.493 625.973 242.072 629.162 241.888 632.2C241.704 635.237 240.797 637.899 239.166 640.186C237.531 642.46 235.27 644.176 232.385 645.335C229.5 646.493 226.68 646.816 223.926 646.303C221.167 645.779 218.671 644.482 216.438 642.415C214.205 640.348 212.418 637.643 211.077 634.302C209.735 630.96 209.157 627.771 209.341 624.733C209.524 621.696 210.434 619.04 212.07 616.766C213.7 614.479 215.958 612.757 218.844 611.598C221.729 610.44 224.551 610.124 227.31 610.648C230.064 611.161 232.558 612.451 234.791 614.518C237.023 616.585 238.811 619.29 240.152 622.631ZM231.644 626.046C231.045 624.554 230.287 623.362 229.371 622.47C228.45 621.566 227.422 621.005 226.29 620.786C225.145 620.573 223.949 620.716 222.704 621.216C221.459 621.716 220.502 622.436 219.835 623.377C219.155 624.323 218.795 625.441 218.754 626.732C218.709 628.01 218.986 629.395 219.585 630.887C220.184 632.379 220.944 633.577 221.865 634.481C222.781 635.373 223.812 635.926 224.957 636.139C226.09 636.358 227.279 636.217 228.524 635.717C229.77 635.217 230.732 634.494 231.412 633.548C232.08 632.608 232.436 631.498 232.482 630.22C232.522 628.929 232.243 627.538 231.644 626.046Z" fill="url(#paint25_linear_49_74)"/>
<path d="M213.541 576.525L216.852 576.414L213.32 558.706L221.294 557.115L226.955 585.495L211.867 586.268L197.637 591.342L192.016 563.158L199.99 561.568L203.483 579.08L206.583 577.913L203.445 562.179L210.403 560.791L213.541 576.525Z" fill="url(#paint26_linear_49_74)"/>
<path d="M831.806 568.655L811.412 564.953L808.265 582.288L799.245 580.65L804.229 553.197L833.643 558.537L831.806 568.655Z" fill="url(#paint27_linear_49_74)"/>
<path d="M803.141 615.103C801.559 614.517 800.184 614.482 799.015 614.999C797.858 615.52 796.962 616.64 796.325 618.36C795.07 621.749 796.087 624.052 799.377 625.27L814.553 630.89L810.981 640.534L795.282 634.72C792.703 633.765 790.655 632.313 789.138 630.363C787.622 628.413 786.735 626.122 786.477 623.49C786.226 620.875 786.643 618.104 787.728 615.176C788.807 612.26 790.302 609.888 792.212 608.059C794.117 606.243 796.276 605.08 798.689 604.571C801.11 604.079 803.61 604.31 806.189 605.265L821.889 611.079L818.318 620.723L803.141 615.103Z" fill="url(#paint28_linear_49_74)"/>
<path d="M774.809 677.996L755.051 680.773L761.559 669.942L772.043 668.824L768.129 659.009L774.554 648.315L781.327 667.148L799.789 664.361L793.158 675.397L784.206 676.365L787.615 684.622L781.067 695.521L774.809 677.996Z" fill="url(#paint29_linear_49_74)"/>
<path d="M743.969 712.719L741.872 710.155L729.938 723.706L723.835 718.332L742.961 696.615L752.73 708.139L765.396 716.373L746.402 737.94L740.3 732.566L752.102 719.165L749.294 717.409L738.69 729.449L733.365 724.76L743.969 712.719Z" fill="url(#paint30_linear_49_74)"/>
<path d="M667.746 763.192L678.847 767.88L681.424 766.213L676.013 757.845L684.649 752.261L700.882 777.364L685.151 787.537C683.165 788.822 681.186 789.603 679.214 789.881C677.249 790.171 675.438 789.95 673.778 789.219C672.119 788.489 670.752 787.292 669.677 785.63C668.53 783.856 668.016 781.997 668.135 780.052C668.243 778.115 668.947 776.268 670.247 774.509L657.872 769.577L667.746 763.192ZM688.329 776.89L685.299 772.204L679.542 775.927C678.683 776.483 678.154 777.109 677.957 777.807C677.755 778.523 677.896 779.254 678.379 780.002C678.863 780.749 679.469 781.172 680.197 781.271C680.921 781.388 681.713 781.169 682.572 780.613L688.329 776.89Z" fill="url(#paint31_linear_49_74)"/>
<path d="M622.73 785.267C626.066 783.913 629.253 783.322 632.291 783.494C635.329 783.666 637.995 784.563 640.288 786.185C642.568 787.812 644.293 790.066 645.463 792.947C646.632 795.828 646.965 798.646 646.464 801.402C645.95 804.163 644.663 806.664 642.604 808.905C640.546 811.146 637.848 812.943 634.512 814.297C631.175 815.651 627.988 816.242 624.95 816.07C621.912 815.898 619.252 814.998 616.972 813.372C614.679 811.75 612.948 809.498 611.779 806.618C610.609 803.737 610.282 800.916 610.796 798.155C611.298 795.399 612.578 792.9 614.637 790.659C616.696 788.419 619.393 786.621 622.73 785.267ZM626.177 793.762C624.688 794.366 623.499 795.129 622.61 796.049C621.709 796.973 621.152 798.003 620.938 799.136C620.729 800.282 620.877 801.477 621.382 802.72C621.886 803.964 622.61 804.917 623.554 805.581C624.502 806.257 625.621 806.613 626.912 806.649C628.19 806.689 629.574 806.407 631.064 805.802C632.554 805.198 633.749 804.433 634.65 803.508C635.538 802.588 636.087 801.556 636.296 800.41C636.51 799.276 636.364 798.088 635.86 796.844C635.355 795.601 634.628 794.641 633.68 793.965C632.737 793.301 631.626 792.949 630.348 792.908C629.057 792.873 627.667 793.157 626.177 793.762Z" fill="url(#paint32_linear_49_74)"/>
<path d="M576.706 812.065L576.583 808.755L558.887 812.348L557.269 804.38L585.628 798.62L586.455 813.705L591.578 827.917L563.414 833.637L561.796 825.668L579.296 822.114L578.118 819.018L562.395 822.211L560.983 815.258L576.706 812.065Z" fill="url(#paint33_linear_49_74)"/>
<path d="M568.928 194.13L565.151 214.51L582.474 217.721L580.803 226.735L553.368 221.65L558.816 192.256L568.928 194.13Z" fill="url(#paint34_linear_49_74)"/>
<path d="M615.247 222.959C614.656 224.539 614.616 225.915 615.128 227.086C615.645 228.244 616.762 229.145 618.479 229.788C621.863 231.055 624.171 230.046 625.401 226.761L631.076 211.606L640.707 215.213L634.836 230.891C633.871 233.466 632.411 235.509 630.456 237.018C628.5 238.527 626.206 239.406 623.573 239.655C620.958 239.895 618.188 239.468 615.264 238.373C612.352 237.283 609.985 235.779 608.163 233.863C606.354 231.951 605.199 229.787 604.699 227.373C604.216 224.95 604.456 222.451 605.421 219.875L611.292 204.197L620.923 207.804L615.247 222.959Z" fill="url(#paint35_linear_49_74)"/>
<path d="M678.05 251.514L680.765 271.28L669.954 264.738L668.869 254.251L659.042 258.135L648.368 251.675L667.223 244.962L664.493 226.491L675.508 233.157L676.448 242.112L684.716 238.728L695.594 245.312L678.05 251.514Z" fill="url(#paint36_linear_49_74)"/>
<path d="M712.691 282.451L710.121 284.541L723.638 296.513L718.247 302.6L696.584 283.413L708.135 273.677L716.404 261.034L737.919 280.088L732.527 286.175L719.159 274.336L717.395 277.139L729.406 287.776L724.701 293.088L712.691 282.451Z" fill="url(#paint37_linear_49_74)"/>
<path d="M762.93 358.817L767.655 347.731L765.997 345.148L757.611 350.532L752.056 341.878L777.213 325.727L787.334 341.493C788.611 343.483 789.386 345.464 789.658 347.437C789.941 349.403 789.714 351.214 788.978 352.871C788.242 354.528 787.041 355.891 785.375 356.96C783.597 358.102 781.736 358.609 779.792 358.484C777.856 358.369 776.01 357.659 774.256 356.354L769.283 368.712L762.93 358.817ZM776.697 338.279L772.001 341.294L775.705 347.063C776.258 347.924 776.883 348.455 777.579 348.655C778.295 348.859 779.027 348.72 779.776 348.239C780.525 347.758 780.95 347.154 781.051 346.426C781.17 345.702 780.954 344.909 780.401 344.048L776.697 338.279Z" fill="url(#paint38_linear_49_74)"/>
<path d="M784.855 403.92C783.514 400.578 782.936 397.389 783.12 394.351C783.305 391.314 784.213 388.652 785.844 386.366C787.479 384.092 789.74 382.376 792.626 381.218C795.511 380.06 798.331 379.738 801.085 380.251C803.844 380.776 806.34 382.073 808.572 384.14C810.805 386.208 812.591 388.913 813.932 392.255C815.273 395.596 815.851 398.786 815.666 401.823C815.482 404.861 814.572 407.517 812.936 409.791C811.305 412.077 809.047 413.799 806.161 414.957C803.276 416.114 800.453 416.43 797.694 415.905C794.94 415.392 792.447 414.102 790.215 412.034C787.982 409.967 786.196 407.262 784.855 403.92ZM793.363 400.506C793.962 401.999 794.719 403.191 795.636 404.083C796.557 404.987 797.584 405.549 798.717 405.767C799.862 405.981 801.057 405.838 802.302 405.338C803.548 404.838 804.504 404.118 805.172 403.178C805.852 402.232 806.212 401.114 806.253 399.823C806.299 398.545 806.022 397.16 805.423 395.668C804.825 394.176 804.065 392.978 803.144 392.073C802.227 391.181 801.197 390.628 800.052 390.415C798.919 390.196 797.73 390.337 796.484 390.837C795.239 391.336 794.276 392.059 793.596 393.005C792.929 393.945 792.572 395.055 792.526 396.333C792.486 397.623 792.765 399.014 793.363 400.506Z" fill="url(#paint39_linear_49_74)"/>
<path d="M811.459 450.025L808.148 450.136L811.68 467.844L803.706 469.435L798.045 441.055L813.133 440.282L827.363 435.208L832.984 463.392L825.01 464.982L821.517 447.47L818.417 448.637L821.555 464.371L814.597 465.759L811.459 450.025Z" fill="url(#paint40_linear_49_74)"/>
<path fill-rule="evenodd" clip-rule="evenodd" d="M602.33 421.27L512.93 120.93L423.52 421.27L119.7 510.67L423.08 600.51L512.05 905.62L603.62 600.08L905.27 510.66L602.32 421.26L602.33 421.27ZM596.22 590.96L514.62 521.09V871.77L431.73 591.81L503.78 510.66H154.4L432.18 427.76L514.63 500.24V154.76L594.93 427.75L525.06 510.65H868.37L596.23 590.94L596.22 590.96Z" fill="url(#paint41_linear_49_74)"/>
<path d="M193.819 454.244L214.168 458.188L217.52 440.892L226.521 442.636L221.211 470.028L191.862 464.34L193.819 454.244Z" fill="url(#paint42_linear_49_74)"/>
<path d="M223.036 408.156C224.611 408.761 225.986 408.812 227.161 408.31C228.324 407.802 229.234 406.693 229.891 404.981C231.186 401.607 230.196 399.292 226.921 398.035L211.813 392.235L215.498 382.634L231.128 388.634C233.695 389.619 235.726 391.096 237.219 393.064C238.712 395.032 239.572 397.333 239.799 399.968C240.018 402.585 239.568 405.352 238.449 408.267C237.335 411.169 235.812 413.523 233.881 415.33C231.954 417.123 229.781 418.26 227.363 418.741C224.936 419.204 222.439 418.943 219.871 417.957L204.242 411.958L207.928 402.357L223.036 408.156Z" fill="url(#paint43_linear_49_74)"/>
<path d="M252.107 345.591L271.895 343.039L265.265 353.795L254.769 354.794L258.572 364.653L252.025 375.274L245.467 356.364L226.974 358.942L233.73 347.982L242.692 347.116L239.377 338.821L246.049 327.997L252.107 345.591Z" fill="url(#paint44_linear_49_74)"/>
<path d="M283.318 311.205L285.386 313.792L297.469 300.373L303.512 305.814L284.148 327.32L274.507 315.689L261.932 307.316L281.162 285.959L287.205 291.4L275.256 304.67L278.045 306.457L288.78 294.535L294.053 299.282L283.318 311.205Z" fill="url(#paint45_linear_49_74)"/>
<path d="M360.102 261.592L349.056 256.776L346.459 258.413L351.774 266.842L343.075 272.327L327.131 247.038L342.979 237.047C344.979 235.786 346.967 235.027 348.942 234.772C350.91 234.505 352.719 234.746 354.37 235.496C356.021 236.246 357.374 237.458 358.43 239.133C359.556 240.92 360.049 242.785 359.907 244.728C359.777 246.663 359.052 248.503 357.732 250.246L370.049 255.321L360.102 261.592ZM339.678 247.657L342.654 252.377L348.454 248.721C349.319 248.175 349.855 247.555 350.06 246.86C350.27 246.146 350.138 245.413 349.663 244.66C349.188 243.907 348.587 243.477 347.86 243.37C347.137 243.245 346.343 243.455 345.478 244L339.678 247.657Z" fill="url(#paint46_linear_49_74)"/>
<path d="M405.379 240.04C402.026 241.354 398.832 241.906 395.796 241.697C392.761 241.489 390.106 240.56 387.833 238.91C385.572 237.256 383.874 234.982 382.74 232.087C381.606 229.192 381.306 226.37 381.841 223.62C382.388 220.865 383.705 218.38 385.79 216.164C387.876 213.949 390.595 212.184 393.947 210.87C397.3 209.556 400.494 209.004 403.53 209.212C406.565 209.421 409.214 210.353 411.475 212.007C413.748 213.656 415.452 215.928 416.586 218.823C417.72 221.718 418.014 224.542 417.467 227.297C416.932 230.047 415.622 232.529 413.536 234.745C411.45 236.961 408.731 238.726 405.379 240.04ZM402.034 231.504C403.531 230.917 404.729 230.17 405.628 229.261C406.54 228.347 407.11 227.324 407.337 226.193C407.56 225.05 407.427 223.854 406.937 222.604C406.447 221.355 405.735 220.392 404.799 219.717C403.859 219.03 402.744 218.66 401.454 218.609C400.176 218.554 398.789 218.819 397.292 219.406C395.796 219.992 394.591 220.742 393.679 221.656C392.78 222.565 392.219 223.592 391.996 224.735C391.768 225.866 391.899 227.056 392.389 228.305C392.879 229.555 393.594 230.523 394.534 231.211C395.469 231.886 396.576 232.252 397.853 232.308C399.143 232.358 400.537 232.091 402.034 231.504Z" fill="url(#paint47_linear_49_74)"/>
<path d="M451.694 213.807L451.779 217.118L469.515 213.732L471.04 221.719L442.615 227.146L441.965 212.053L437.008 197.782L465.237 192.392L466.762 200.379L449.222 203.728L450.363 206.838L466.122 203.828L467.453 210.798L451.694 213.807Z" fill="url(#paint48_linear_49_74)"/>
<defs>
<linearGradient id="paint0_linear_49_74" x1="512" y1="-28.22" x2="512" y2="1127.78" gradientUnits="userSpaceOnUse">
<stop stop-color="#FF0033"/>
<stop offset="1" stop-color="#0088FF"/>
</linearGradient>
<linearGradient id="paint1_linear_49_74" x1="512" y1="-28.22" x2="512" y2="1127.78" gradientUnits="userSpaceOnUse">
<stop stop-color="#FF0033"/>
<stop offset="1" stop-color="#0088FF"/>
</linearGradient>
<linearGradient id="paint2_linear_49_74" x1="512" y1="-28.22" x2="512" y2="1127.78" gradientUnits="userSpaceOnUse">
<stop stop-color="#FF0033"/>
<stop offset="1" stop-color="#0088FF"/>
</linearGradient>
<linearGradient id="paint3_linear_49_74" x1="512" y1="-28.22" x2="512" y2="1127.78" gradientUnits="userSpaceOnUse">
<stop stop-color="#FF0033"/>
<stop offset="1" stop-color="#0088FF"/>
</linearGradient>
<linearGradient id="paint4_linear_49_74" x1="512" y1="-28.22" x2="512" y2="1127.78" gradientUnits="userSpaceOnUse">
<stop stop-color="#FF0033"/>
<stop offset="1" stop-color="#0088FF"/>
</linearGradient>
<linearGradient id="paint5_linear_49_74" x1="512" y1="-28.22" x2="512" y2="1127.78" gradientUnits="userSpaceOnUse">
<stop stop-color="#FF0033"/>
<stop offset="1" stop-color="#0088FF"/>
</linearGradient>
<linearGradient id="paint6_linear_49_74" x1="512" y1="-28.22" x2="512" y2="1127.78" gradientUnits="userSpaceOnUse">
<stop stop-color="#FF0033"/>
<stop offset="1" stop-color="#0088FF"/>
</linearGradient>
<linearGradient id="paint7_linear_49_74" x1="512" y1="-28.22" x2="512" y2="1127.78" gradientUnits="userSpaceOnUse">
<stop stop-color="#FF0033"/>
<stop offset="1" stop-color="#0088FF"/>
</linearGradient>
<linearGradient id="paint8_linear_49_74" x1="512" y1="-28.22" x2="512" y2="1127.78" gradientUnits="userSpaceOnUse">
<stop stop-color="#FF0033"/>
<stop offset="1" stop-color="#0088FF"/>
</linearGradient>
<linearGradient id="paint9_linear_49_74" x1="512" y1="-28.22" x2="512" y2="1127.78" gradientUnits="userSpaceOnUse">
<stop stop-color="#FF0033"/>
<stop offset="1" stop-color="#0088FF"/>
</linearGradient>
<linearGradient id="paint10_linear_49_74" x1="512" y1="-28.22" x2="512" y2="1127.78" gradientUnits="userSpaceOnUse">
<stop stop-color="#FF0033"/>
<stop offset="1" stop-color="#0088FF"/>
</linearGradient>
<linearGradient id="paint11_linear_49_74" x1="512" y1="-28.22" x2="512" y2="1127.78" gradientUnits="userSpaceOnUse">
<stop stop-color="#FF0033"/>
<stop offset="1" stop-color="#0088FF"/>
</linearGradient>
<linearGradient id="paint12_linear_49_74" x1="512" y1="-28.22" x2="512" y2="1127.78" gradientUnits="userSpaceOnUse">
<stop stop-color="#FF0033"/>
<stop offset="1" stop-color="#0088FF"/>
</linearGradient>
<linearGradient id="paint13_linear_49_74" x1="512" y1="-28.22" x2="512" y2="1127.78" gradientUnits="userSpaceOnUse">
<stop stop-color="#FF0033"/>
<stop offset="1" stop-color="#0088FF"/>
</linearGradient>
<linearGradient id="paint14_linear_49_74" x1="512" y1="-28.22" x2="512" y2="1127.78" gradientUnits="userSpaceOnUse">
<stop stop-color="#FF0033"/>
<stop offset="1" stop-color="#0088FF"/>
</linearGradient>
<linearGradient id="paint15_linear_49_74" x1="512" y1="-28.22" x2="512" y2="1127.78" gradientUnits="userSpaceOnUse">
<stop stop-color="#FF0033"/>
<stop offset="1" stop-color="#0088FF"/>
</linearGradient>
<linearGradient id="paint16_linear_49_74" x1="512" y1="-28.22" x2="512" y2="1127.78" gradientUnits="userSpaceOnUse">
<stop stop-color="#FF0033"/>
<stop offset="1" stop-color="#0088FF"/>
</linearGradient>
<linearGradient id="paint17_linear_49_74" x1="512" y1="-28.22" x2="512" y2="1127.78" gradientUnits="userSpaceOnUse">
<stop stop-color="#FF0033"/>
<stop offset="1" stop-color="#0088FF"/>
</linearGradient>
<linearGradient id="paint18_linear_49_74" x1="512" y1="-28.22" x2="512" y2="1127.78" gradientUnits="userSpaceOnUse">
<stop stop-color="#FF0033"/>
<stop offset="1" stop-color="#0088FF"/>
</linearGradient>
<linearGradient id="paint19_linear_49_74" x1="512" y1="-28.22" x2="512" y2="1127.78" gradientUnits="userSpaceOnUse">
<stop stop-color="#FF0033"/>
<stop offset="1" stop-color="#0088FF"/>
</linearGradient>
<linearGradient id="paint20_linear_49_74" x1="512" y1="-28.22" x2="512" y2="1127.78" gradientUnits="userSpaceOnUse">
<stop stop-color="#FF0033"/>
<stop offset="1" stop-color="#0088FF"/>
</linearGradient>
<linearGradient id="paint21_linear_49_74" x1="512" y1="-28.22" x2="512" y2="1127.78" gradientUnits="userSpaceOnUse">
<stop stop-color="#FF0033"/>
<stop offset="1" stop-color="#0088FF"/>
</linearGradient>
<linearGradient id="paint22_linear_49_74" x1="512" y1="-28.22" x2="512" y2="1127.78" gradientUnits="userSpaceOnUse">
<stop stop-color="#FF0033"/>
<stop offset="1" stop-color="#0088FF"/>
</linearGradient>
<linearGradient id="paint23_linear_49_74" x1="512" y1="-28.22" x2="512" y2="1127.78" gradientUnits="userSpaceOnUse">
<stop stop-color="#FF0033"/>
<stop offset="1" stop-color="#0088FF"/>
</linearGradient>
<linearGradient id="paint24_linear_49_74" x1="512" y1="-28.22" x2="512" y2="1127.78" gradientUnits="userSpaceOnUse">
<stop stop-color="#FF0033"/>
<stop offset="1" stop-color="#0088FF"/>
</linearGradient>
<linearGradient id="paint25_linear_49_74" x1="512" y1="-28.22" x2="512" y2="1127.78" gradientUnits="userSpaceOnUse">
<stop stop-color="#FF0033"/>
<stop offset="1" stop-color="#0088FF"/>
</linearGradient>
<linearGradient id="paint26_linear_49_74" x1="512" y1="-28.22" x2="512" y2="1127.78" gradientUnits="userSpaceOnUse">
<stop stop-color="#FF0033"/>
<stop offset="1" stop-color="#0088FF"/>
</linearGradient>
<linearGradient id="paint27_linear_49_74" x1="512" y1="-28.22" x2="512" y2="1127.78" gradientUnits="userSpaceOnUse">
<stop stop-color="#FF0033"/>
<stop offset="1" stop-color="#0088FF"/>
</linearGradient>
<linearGradient id="paint28_linear_49_74" x1="512" y1="-28.22" x2="512" y2="1127.78" gradientUnits="userSpaceOnUse">
<stop stop-color="#FF0033"/>
<stop offset="1" stop-color="#0088FF"/>
</linearGradient>
<linearGradient id="paint29_linear_49_74" x1="512" y1="-28.22" x2="512" y2="1127.78" gradientUnits="userSpaceOnUse">
<stop stop-color="#FF0033"/>
<stop offset="1" stop-color="#0088FF"/>
</linearGradient>
<linearGradient id="paint30_linear_49_74" x1="512" y1="-28.22" x2="512" y2="1127.78" gradientUnits="userSpaceOnUse">
<stop stop-color="#FF0033"/>
<stop offset="1" stop-color="#0088FF"/>
</linearGradient>
<linearGradient id="paint31_linear_49_74" x1="512" y1="-28.22" x2="512" y2="1127.78" gradientUnits="userSpaceOnUse">
<stop stop-color="#FF0033"/>
<stop offset="1" stop-color="#0088FF"/>
</linearGradient>
<linearGradient id="paint32_linear_49_74" x1="512" y1="-28.22" x2="512" y2="1127.78" gradientUnits="userSpaceOnUse">
<stop stop-color="#FF0033"/>
<stop offset="1" stop-color="#0088FF"/>
</linearGradient>
<linearGradient id="paint33_linear_49_74" x1="512" y1="-28.22" x2="512" y2="1127.78" gradientUnits="userSpaceOnUse">
<stop stop-color="#FF0033"/>
<stop offset="1" stop-color="#0088FF"/>
</linearGradient>
<linearGradient id="paint34_linear_49_74" x1="512" y1="-28.22" x2="512" y2="1127.78" gradientUnits="userSpaceOnUse">
<stop stop-color="#FF0033"/>
<stop offset="1" stop-color="#0088FF"/>
</linearGradient>
<linearGradient id="paint35_linear_49_74" x1="512" y1="-28.22" x2="512" y2="1127.78" gradientUnits="userSpaceOnUse">
<stop stop-color="#FF0033"/>
<stop offset="1" stop-color="#0088FF"/>
</linearGradient>
<linearGradient id="paint36_linear_49_74" x1="512" y1="-28.22" x2="512" y2="1127.78" gradientUnits="userSpaceOnUse">
<stop stop-color="#FF0033"/>
<stop offset="1" stop-color="#0088FF"/>
</linearGradient>
<linearGradient id="paint37_linear_49_74" x1="512" y1="-28.22" x2="512" y2="1127.78" gradientUnits="userSpaceOnUse">
<stop stop-color="#FF0033"/>
<stop offset="1" stop-color="#0088FF"/>
</linearGradient>
<linearGradient id="paint38_linear_49_74" x1="512" y1="-28.22" x2="512" y2="1127.78" gradientUnits="userSpaceOnUse">
<stop stop-color="#FF0033"/>
<stop offset="1" stop-color="#0088FF"/>
</linearGradient>
<linearGradient id="paint39_linear_49_74" x1="512" y1="-28.22" x2="512" y2="1127.78" gradientUnits="userSpaceOnUse">
<stop stop-color="#FF0033"/>
<stop offset="1" stop-color="#0088FF"/>
</linearGradient>
<linearGradient id="paint40_linear_49_74" x1="512" y1="-28.22" x2="512" y2="1127.78" gradientUnits="userSpaceOnUse">
<stop stop-color="#FF0033"/>
<stop offset="1" stop-color="#0088FF"/>
</linearGradient>
<linearGradient id="paint41_linear_49_74" x1="512" y1="-28.22" x2="512" y2="1127.78" gradientUnits="userSpaceOnUse">
<stop stop-color="#FF0033"/>
<stop offset="1" stop-color="#0088FF"/>
</linearGradient>
<linearGradient id="paint42_linear_49_74" x1="512" y1="-28.22" x2="512" y2="1127.78" gradientUnits="userSpaceOnUse">
<stop stop-color="#FF0033"/>
<stop offset="1" stop-color="#0088FF"/>
</linearGradient>
<linearGradient id="paint43_linear_49_74" x1="512" y1="-28.22" x2="512" y2="1127.78" gradientUnits="userSpaceOnUse">
<stop stop-color="#FF0033"/>
<stop offset="1" stop-color="#0088FF"/>
</linearGradient>
<linearGradient id="paint44_linear_49_74" x1="512" y1="-28.22" x2="512" y2="1127.78" gradientUnits="userSpaceOnUse">
<stop stop-color="#FF0033"/>
<stop offset="1" stop-color="#0088FF"/>
</linearGradient>
<linearGradient id="paint45_linear_49_74" x1="512" y1="-28.22" x2="512" y2="1127.78" gradientUnits="userSpaceOnUse">
<stop stop-color="#FF0033"/>
<stop offset="1" stop-color="#0088FF"/>
</linearGradient>
<linearGradient id="paint46_linear_49_74" x1="512" y1="-28.22" x2="512" y2="1127.78" gradientUnits="userSpaceOnUse">
<stop stop-color="#FF0033"/>
<stop offset="1" stop-color="#0088FF"/>
</linearGradient>
<linearGradient id="paint47_linear_49_74" x1="512" y1="-28.22" x2="512" y2="1127.78" gradientUnits="userSpaceOnUse">
<stop stop-color="#FF0033"/>
<stop offset="1" stop-color="#0088FF"/>
</linearGradient>
<linearGradient id="paint48_linear_49_74" x1="512" y1="-28.22" x2="512" y2="1127.78" gradientUnits="userSpaceOnUse">
<stop stop-color="#FF0033"/>
<stop offset="1" stop-color="#0088FF"/>
</linearGradient>
</defs>
</svg>
